<mxfile host="app.diagrams.net" modified="2023-12-21T12:31:56.721Z" agent="Mozilla/5.0 (X11; Linux x86_64) AppleWebKit/537.36 (KHTML, like Gecko) Chrome/120.0.0.0 Safari/537.36" version="22.1.11" etag="bznSyVWrhQ9TcVlg0MTF" type="github">
  <diagram name="Page-1" id="u7_BX-c_0UuzX8GBe_q5">
    <mxGraphModel>
      <root>
        <mxCell id="0" />
        <mxCell id="1" parent="0" />
      </root>
    </mxGraphModel>
  </diagram>
</mxfile>
